<?xml version="1.0" encoding="UTF-8"?>
<svg xmlns="http://www.w3.org/2000/svg" xmlns:xlink="http://www.w3.org/1999/xlink" viewBox="0 0 24 24" width="24px" height="24px">
<g id="surface118906670">
<path style=" stroke:none;fill-rule:nonzero;fill:rgb(100%,100%,100%);fill-opacity:1;" d="M 12 0.960938 C 5.910156 0.960938 0.960938 5.910156 0.960938 12 C 0.960938 18.089844 5.910156 23.039062 12 23.039062 C 18.089844 23.039062 23.039062 18.089844 23.039062 12 C 23.039062 5.910156 18.089844 0.960938 12 0.960938 Z M 12 1.921875 C 17.570312 1.921875 22.078125 6.429688 22.078125 12 C 22.078125 12.035156 22.078125 12.066406 22.078125 12.101562 C 21.769531 12.074219 21.414062 12.046875 20.964844 12.03125 C 20.328125 12.007812 19.523438 12.015625 18.609375 12.058594 C 18.644531 11.824219 18.667969 11.585938 18.667969 11.339844 C 18.714844 10.441406 18.414062 9.601562 17.921875 8.859375 C 18.042969 8.449219 18.179688 7.925781 18.214844 7.335938 C 18.253906 6.660156 18.195312 5.914062 17.65625 5.410156 L 17.515625 5.28125 L 17.328125 5.28125 C 16.039062 5.28125 15.160156 5.820312 14.621094 6.246094 C 13.839844 5.945312 12.964844 5.761719 12 5.761719 C 11.027344 5.761719 10.144531 5.949219 9.335938 6.25 C 8.796875 5.820312 7.914062 5.28125 6.625 5.28125 L 6.4375 5.28125 L 6.296875 5.410156 C 5.769531 5.898438 5.722656 6.625 5.753906 7.296875 C 5.785156 7.886719 5.914062 8.425781 6.03125 8.855469 C 5.53125 9.613281 5.230469 10.472656 5.230469 11.328125 C 5.230469 11.574219 5.253906 11.8125 5.289062 12.046875 C 4.421875 12.007812 3.648438 12 3.035156 12.023438 C 2.585938 12.039062 2.230469 12.066406 1.921875 12.09375 C 1.921875 12.0625 1.921875 12.03125 1.921875 12 C 1.921875 6.429688 6.429688 1.921875 12 1.921875 Z M 6.910156 6.304688 C 7.878906 6.394531 8.605469 6.828125 8.945312 7.125 L 9.167969 7.324219 L 9.445312 7.210938 C 10.207031 6.898438 11.054688 6.71875 12 6.71875 C 12.945312 6.71875 13.792969 6.902344 14.496094 7.207031 L 14.777344 7.332031 L 15.007812 7.125 C 15.34375 6.828125 16.074219 6.394531 17.042969 6.304688 C 17.171875 6.515625 17.285156 6.820312 17.257812 7.28125 C 17.222656 7.828125 17.078125 8.429688 16.964844 8.785156 L 16.894531 9.015625 L 17.039062 9.210938 C 17.511719 9.859375 17.753906 10.558594 17.714844 11.300781 L 17.710938 11.316406 L 17.710938 11.328125 C 17.710938 12.527344 17.28125 13.484375 16.363281 14.195312 C 15.445312 14.90625 13.992188 15.359375 11.953125 15.359375 C 9.910156 15.359375 8.460938 14.90625 7.542969 14.195312 C 6.621094 13.484375 6.191406 12.527344 6.191406 11.328125 C 6.191406 10.625 6.445312 9.851562 6.914062 9.210938 L 7.054688 9.019531 L 6.988281 8.792969 C 6.875 8.414062 6.742188 7.800781 6.714844 7.25 C 6.691406 6.789062 6.800781 6.496094 6.910156 6.304688 Z M 4.265625 12.492188 C 4.605469 12.496094 4.992188 12.511719 5.382812 12.53125 C 5.417969 12.683594 5.460938 12.828125 5.511719 12.972656 C 3.925781 13.007812 2.738281 13.167969 2.007812 13.304688 C 1.976562 13.0625 1.949219 12.820312 1.9375 12.574219 C 2.476562 12.523438 3.242188 12.476562 4.265625 12.492188 Z M 19.734375 12.496094 C 20.757812 12.484375 21.519531 12.53125 22.0625 12.582031 C 22.046875 12.824219 22.023438 13.0625 21.992188 13.300781 C 21.234375 13.160156 20.015625 13 18.386719 12.976562 C 18.4375 12.835938 18.480469 12.691406 18.515625 12.542969 C 18.945312 12.519531 19.367188 12.503906 19.734375 12.496094 Z M 5.71875 13.449219 C 6.003906 14.023438 6.414062 14.535156 6.953125 14.953125 C 7.695312 15.527344 8.65625 15.925781 9.828125 16.140625 C 9.675781 16.296875 9.535156 16.46875 9.410156 16.652344 L 9.382812 16.628906 C 9.386719 16.625 9.144531 16.746094 8.785156 16.777344 C 8.421875 16.808594 7.976562 16.800781 7.585938 16.800781 C 6.996094 16.800781 6.738281 16.523438 6.324219 16.015625 C 6.09375 15.707031 5.816406 15.457031 5.542969 15.265625 C 5.265625 15.074219 5.027344 14.933594 4.734375 14.886719 L 4.695312 14.878906 L 4.65625 14.878906 C 4.429688 14.878906 4.214844 14.894531 4.011719 15.128906 C 3.910156 15.242188 3.839844 15.457031 3.886719 15.636719 C 3.933594 15.820312 4.046875 15.929688 4.148438 16 C 4.804688 16.4375 4.921875 17.300781 5.332031 18.070312 C 5.714844 18.835938 6.546875 19.199219 7.390625 19.199219 L 8.640625 19.199219 L 8.640625 21.503906 C 5.265625 20.3125 2.71875 17.378906 2.078125 13.777344 C 2.8125 13.640625 4.042969 13.472656 5.71875 13.449219 Z M 18.183594 13.453125 C 19.894531 13.46875 21.160156 13.632812 21.921875 13.773438 C 21.28125 17.375 18.738281 20.3125 15.359375 21.503906 L 15.359375 19.007812 C 15.359375 18.246094 15.109375 17.410156 14.675781 16.710938 C 14.542969 16.496094 14.386719 16.296875 14.214844 16.117188 C 15.328125 15.894531 16.238281 15.503906 16.949219 14.953125 C 17.488281 14.535156 17.898438 14.027344 18.183594 13.453125 Z M 11.375 16.367188 L 12.71875 16.367188 C 13.109375 16.367188 13.527344 16.679688 13.859375 17.214844 C 14.195312 17.75 14.398438 18.472656 14.398438 19.007812 L 14.398438 21.792969 C 13.628906 21.980469 12.828125 22.078125 12 22.078125 C 11.171875 22.078125 10.371094 21.980469 9.601562 21.792969 L 9.601562 19.007812 C 9.601562 18.484375 9.824219 17.765625 10.179688 17.226562 C 10.535156 16.6875 10.984375 16.367188 11.375 16.367188 Z M 5.90625 16.933594 C 6.324219 17.367188 6.828125 17.761719 7.585938 17.761719 C 7.957031 17.761719 8.425781 17.773438 8.867188 17.734375 C 8.871094 17.734375 8.871094 17.734375 8.875 17.734375 C 8.816406 17.902344 8.769531 18.070312 8.734375 18.238281 L 7.390625 18.238281 C 6.800781 18.238281 6.382812 18.027344 6.1875 17.640625 L 6.1875 17.632812 L 6.183594 17.628906 C 6.105469 17.480469 6 17.1875 5.90625 16.933594 Z M 5.90625 16.933594 "/>
</g>
</svg>
